<?xml version="1.0" standalone="no"?>
<!DOCTYPE svg PUBLIC "-//W3C//DTD SVG 20010904//EN"
 "http://www.w3.org/TR/2001/REC-SVG-20010904/DTD/svg10.dtd">
<svg version="1.0" xmlns="http://www.w3.org/2000/svg"
 width="571.000000pt" height="800.000000pt" viewBox="0 0 571.000000 800.000000"
 preserveAspectRatio="xMidYMid meet">

<g transform="translate(0.000000,800.000000) scale(0.100000,-0.100000)"
fill="#000000" stroke="none">
<path d="M2690 7895 l0 -105 30 0 30 0 0 -110 0 -110 -105 0 -105 0 0 25 0 25
-110 0 -110 0 0 -175 0 -175 104 0 105 0 3 28 3 27 108 3 107 3 0 -116 0 -115
-30 0 -29 0 -3 -72 -3 -73 -140 -2 c-1340 -21 -2291 -244 -2516 -592 l-29 -45
0 -396 c0 -502 0 -500 130 -565 30 -15 215 -81 410 -145 223 -74 356 -123 358
-131 2 -9 -57 -44 -169 -99 -183 -91 -237 -132 -270 -203 -17 -39 -19 -72 -19
-460 0 -367 2 -422 16 -445 9 -15 72 -71 140 -125 68 -55 122 -102 120 -106
-3 -4 -147 -101 -320 -217 -174 -115 -316 -212 -316 -216 0 -4 99 -39 220 -78
l220 -71 2 -249 3 -250 202 135 c112 74 203 132 203 128 0 -5 1 -467 3 -1028
4 -1142 0 -1075 78 -1243 46 -101 143 -203 229 -245 123 -59 131 -60 685 -67
491 -6 512 -7 568 -28 91 -34 174 -79 275 -148 l93 -65 42 35 c60 49 178 123
234 147 124 54 104 52 653 59 447 6 523 9 575 24 153 45 268 141 334 280 80
168 75 86 79 1248 l3 1038 202 -135 202 -135 3 249 2 250 228 73 227 74 -327
216 c-181 120 -328 219 -328 221 0 2 58 50 129 106 84 67 134 114 143 135 10
24 13 122 13 441 l0 410 -30 54 c-41 75 -77 101 -268 193 -113 55 -167 87
-165 96 2 9 130 56 358 132 195 64 380 129 410 144 130 66 130 64 130 566 l0
396 -28 45 c-180 280 -835 484 -1802 559 -233 18 -509 30 -682 30 l-168 0 0
75 0 75 -35 0 -35 0 0 115 0 115 110 0 110 0 0 -30 0 -30 105 0 105 0 0 175 0
175 -105 0 -105 0 0 -25 0 -25 -110 0 -110 0 0 110 0 110 30 0 30 0 0 105 0
105 -165 0 -165 0 0 -105z m290 -10 c0 -54 0 -55 -30 -55 l-30 0 0 -155 0
-155 149 0 c148 0 150 0 153 23 3 20 8 22 63 22 l60 0 3 -117 3 -118 -61 0
c-53 0 -60 2 -60 20 0 19 -7 20 -155 20 l-155 0 0 -155 0 -155 31 0 c30 0 30
0 27 -51 l-3 -50 -118 -2 -117 -2 0 53 c0 49 2 52 25 52 l25 0 0 155 0 155
-155 0 c-148 0 -155 -1 -155 -20 0 -18 -7 -20 -55 -20 l-56 0 3 118 3 117 55
0 c49 0 55 -2 58 -22 3 -23 5 -23 153 -23 l149 0 0 155 0 155 -25 0 c-24 0
-25 3 -25 55 l0 55 120 0 120 0 0 -55z m278 -1024 c189 -6 407 -16 485 -21
860 -62 1473 -205 1770 -413 31 -22 57 -43 57 -48 0 -4 -10 -15 -21 -23 l-22
-15 22 -27 22 -28 -28 -14 c-15 -8 -29 -16 -31 -17 -2 -2 8 -15 22 -30 32 -35
32 -39 1 -53 l-26 -12 30 -33 c35 -37 38 -47 14 -47 -41 -1 -44 -15 -12 -56
l31 -39 -36 -3 c-20 -2 -36 -5 -36 -8 0 -2 16 -25 36 -51 l37 -48 -37 -3 c-21
-2 -36 -6 -34 -10 17 -32 38 -85 36 -88 -2 -2 -28 13 -58 33 -211 142 -638
269 -1155 342 -706 101 -1738 120 -2540 46 -721 -67 -1268 -203 -1555 -388
-30 -20 -56 -34 -57 -33 -6 6 27 75 39 83 8 5 -3 10 -31 13 l-44 5 37 48 c20
26 36 49 36 51 0 3 -17 6 -37 8 l-37 3 33 37 c35 40 34 58 -5 58 -32 0 -30 7
8 47 l31 32 -26 12 c-33 15 -33 20 -2 49 32 30 31 35 -5 50 l-30 12 21 29 21
29 -22 18 -23 18 44 38 c57 49 256 145 391 190 441 146 1161 245 1848 255 85
1 155 3 156 4 8 8 396 6 682 -2z m332 -730 c455 -33 797 -74 1115 -137 150
-29 209 -44 203 -49 -2 -3 -181 -65 -396 -139 -216 -74 -413 -146 -437 -161
-28 -16 -55 -43 -72 -73 l-28 -47 0 -375 0 -375 27 -59 c16 -32 22 -56 15 -53
-6 3 -203 80 -437 172 -234 92 -428 173 -432 179 -18 26 -5 58 43 113 29 32
68 92 87 133 20 41 40 77 44 78 5 2 22 15 38 29 61 51 60 157 -2 214 -20 17
-38 49 -48 83 -43 137 -156 279 -263 330 -174 82 -372 43 -506 -99 -61 -65
-131 -192 -146 -263 -4 -18 -16 -37 -26 -43 -33 -17 -59 -70 -59 -119 0 -51
23 -92 66 -121 16 -10 36 -38 46 -65 21 -52 65 -120 116 -176 26 -29 33 -44
30 -70 l-3 -33 -440 -172 c-242 -95 -441 -173 -442 -173 -2 0 3 10 11 23 8 12
22 48 31 79 14 48 16 107 13 410 l-3 353 -25 45 c-17 30 -42 55 -76 75 -27 17
-227 90 -443 164 -236 81 -387 137 -379 142 17 9 342 73 478 93 340 50 568 71
1110 100 130 7 1049 -3 1190 -13z m-770 -240 l0 -49 -47 -7 c-66 -10 -145 -41
-203 -80 -28 -19 -50 -31 -50 -29 0 14 36 70 67 104 55 62 143 107 211 109 20
1 22 -4 22 -48z m197 19 c62 -27 108 -65 143 -118 16 -25 30 -49 30 -53 0 -3
-39 13 -87 38 -49 24 -116 49 -150 56 l-63 12 0 49 0 49 42 -7 c23 -4 61 -15
85 -26z m-69 -210 c108 -14 199 -43 250 -80 l42 -30 0 -88 c0 -103 -7 -114
-103 -156 -81 -36 -181 -49 -327 -43 -143 5 -231 29 -298 77 l-42 30 0 89 c0
99 1 102 85 144 60 30 116 46 199 56 89 12 103 12 194 1z m-1412 -437 c-30
-44 -32 -56 -8 -50 80 22 80 23 24 -37 -29 -30 -52 -58 -52 -62 0 -3 21 -3 47
1 l48 7 -48 -51 c-26 -27 -47 -53 -47 -57 0 -4 24 -3 53 0 l52 7 -60 -60 -59
-61 64 0 64 0 -59 -60 -59 -60 34 -1 c19 -1 38 -1 43 0 18 3 4 -18 -33 -48
-42 -34 -50 -51 -24 -51 8 0 12 -4 9 -10 -4 -6 -113 -10 -295 -10 l-289 0 -3
-151 -3 -151 -159 -84 c-87 -47 -160 -83 -162 -81 -2 2 13 23 33 46 l36 43
-51 -3 c-29 -2 -52 -2 -52 1 0 3 20 26 45 50 50 49 46 60 -20 60 l-39 0 53 54
54 55 -47 3 -47 3 44 47 44 48 -47 6 -46 6 50 49 51 49 -55 0 -54 0 47 48 c26
26 47 51 47 54 0 4 -12 8 -28 10 -21 2 55 45 338 190 471 240 584 297 588 293
2 -2 -8 -21 -22 -42z m3098 -193 c256 -129 466 -238 466 -242 0 -5 -12 -8 -27
-8 -26 0 -26 -2 27 -55 l54 -55 -59 0 -60 -1 55 -49 55 -49 -35 -2 c-19 -1
-41 -2 -47 -2 -21 1 -15 -9 34 -59 l47 -48 -54 0 -54 0 54 -55 54 -55 -36 0
c-67 0 -70 -8 -17 -57 27 -25 49 -48 49 -52 0 -3 -23 -4 -52 -2 l-51 3 31 -40
c18 -22 32 -43 32 -46 0 -4 -72 31 -160 76 l-160 83 0 153 0 152 -295 0 c-190
0 -295 4 -295 10 0 6 7 10 15 10 25 0 17 13 -30 50 -46 36 -54 48 -32 47 6 0
26 1 43 1 l31 2 -53 58 -53 57 54 3 c30 2 55 6 55 10 0 3 -24 30 -52 59 l-53
53 48 -6 c26 -4 47 -3 47 2 0 4 -21 30 -47 57 l-48 48 55 -7 55 -7 -53 58
c-29 31 -51 59 -49 61 2 2 20 -1 41 -7 21 -6 39 -9 41 -7 2 2 -10 25 -26 52
-17 26 -26 47 -20 45 5 -2 219 -110 475 -239z m-2033 157 c31 -15 95 -37 143
-49 83 -22 86 -24 86 -51 0 -29 0 -29 -49 -22 -43 6 -51 4 -60 -14 -17 -31
-13 -41 24 -57 61 -25 242 -14 261 17 3 5 -1 21 -10 34 -14 21 -23 24 -64 22
-44 -2 -47 0 -47 23 0 23 7 27 95 50 53 14 117 38 144 53 76 42 74 33 -11 -73
-41 -49 -43 -55 -43 -116 0 -63 -1 -64 -40 -93 -21 -15 -60 -34 -85 -41 -63
-18 -169 -9 -223 19 -71 36 -82 52 -82 124 0 61 -1 64 -55 129 -51 61 -66 85
-47 76 4 -2 32 -16 63 -31z m0 -593 c-39 -131 -69 -239 -67 -241 1 -2 61 96
132 216 71 121 132 214 135 208 3 -7 17 -146 29 -310 13 -163 25 -296 27 -294
2 2 14 138 28 303 14 164 27 303 28 308 2 5 63 -91 136 -215 73 -123 130 -210
127 -194 -4 17 -35 127 -70 245 -36 118 -64 215 -63 216 1 1 81 -48 177 -108
322 -202 307 -193 285 -167 -11 13 -69 77 -128 142 -60 65 -107 120 -105 122
3 3 733 -282 747 -291 8 -6 -42 -73 -91 -121 -94 -92 -179 -130 -348 -158
-174 -29 -198 -36 -257 -74 -32 -21 -95 -74 -139 -118 -127 -125 -255 -177
-381 -154 -97 18 -175 64 -283 166 -125 118 -188 150 -328 170 -198 28 -297
67 -394 153 -53 49 -113 128 -101 135 11 7 744 297 750 297 5 0 -35 -45 -177
-201 -97 -106 -108 -110 186 75 115 73 210 132 212 130 2 -1 -28 -109 -67
-240z m-982 -118 c43 -89 145 -183 253 -235 71 -34 101 -43 208 -56 69 -9 141
-20 160 -25 53 -14 114 -57 228 -161 l103 -94 -475 -3 -476 -2 0 -1319 c0
-835 4 -1338 10 -1372 26 -139 116 -256 248 -321 l66 -33 321 -5 c293 -5 324
-7 371 -26 57 -23 129 -71 186 -122 l38 -34 51 46 c28 25 90 65 137 89 l85 42
326 5 326 5 65 31 c135 64 227 187 250 334 6 41 10 539 10 1372 l0 1308 -483
2 -484 3 102 93 c167 152 187 162 385 187 112 13 134 20 219 61 115 57 205
141 248 233 l28 61 293 0 293 0 -3 -1897 -3 -1898 -22 -77 c-57 -199 -160
-315 -328 -369 -29 -9 -180 -14 -555 -19 -489 -6 -519 -8 -585 -28 -104 -32
-246 -105 -303 -157 l-51 -46 -54 44 c-91 74 -194 126 -327 164 -46 14 -139
18 -570 23 -575 7 -563 5 -678 79 -71 46 -140 134 -171 215 -53 143 -51 53
-51 2086 l0 1880 289 0 288 0 32 -64z m2396 -1961 c0 -1435 4 -1344 -67 -1451
-26 -38 -48 -57 -102 -84 l-69 -35 -326 -6 c-300 -5 -330 -7 -378 -26 -68 -27
-135 -66 -179 -105 l-35 -31 -32 31 c-53 51 -144 100 -217 116 -53 12 -131 16
-341 16 -306 0 -350 7 -429 64 -55 40 -104 126 -119 210 -8 41 -11 458 -11
1328 l0 1268 1153 -2 1152 -3 0 -1290z"/>
<path d="M2596 6752 c-3 -5 1 -12 9 -16 12 -4 15 -33 15 -169 0 -113 -4 -167
-12 -175 -9 -9 4 -12 59 -12 64 0 74 3 101 28 71 66 71 251 0 319 -24 23 -39
28 -97 31 -39 2 -71 0 -75 -6z m138 -46 c30 -39 36 -215 9 -266 -11 -22 -25
-35 -38 -35 -19 0 -20 8 -23 155 -1 85 0 160 3 168 7 19 25 11 49 -22z"/>
<path d="M2843 6742 c24 -26 25 -312 2 -336 -8 -8 -15 -17 -15 -20 0 -3 43 -6
95 -6 104 0 100 -3 108 68 6 53 -3 54 -25 2 -16 -40 -50 -59 -83 -46 -20 7
-22 156 -2 156 21 0 37 -22 37 -52 0 -15 5 -28 10 -28 6 0 10 37 9 93 l-1 92
-15 -37 c-17 -40 -41 -56 -50 -33 -3 9 -2 45 2 80 6 60 8 65 31 65 31 0 64
-33 64 -65 0 -14 3 -25 8 -25 4 0 7 24 7 53 l-1 52 -99 3 c-96 3 -98 2 -82
-16z"/>
<path d="M3161 6731 c-15 -16 -33 -47 -39 -69 -16 -53 -15 -165 2 -206 27 -65
97 -94 159 -65 20 9 26 21 31 67 4 34 13 60 24 68 15 11 8 13 -47 14 -55 0
-62 -2 -47 -13 13 -10 17 -24 14 -67 -3 -51 -5 -55 -30 -58 -43 -5 -58 37 -57
155 0 109 13 159 46 180 20 14 24 13 48 -11 14 -14 28 -39 31 -56 12 -56 24
-42 24 27 0 45 -3 63 -9 54 -8 -12 -14 -13 -36 -3 -45 21 -84 15 -114 -17z"/>
<path d="M3350 6752 c0 -6 5 -14 10 -17 6 -4 10 -65 10 -150 0 -86 5 -154 11
-169 15 -33 62 -52 97 -40 45 15 60 63 68 212 5 98 11 135 20 139 24 9 4 23
-33 23 -35 0 -36 0 -18 -20 15 -17 17 -35 13 -148 -4 -143 -18 -182 -63 -182
-42 0 -49 29 -42 184 5 117 9 143 23 153 16 11 12 13 -23 13 -23 0 -48 3 -57
6 -9 3 -16 1 -16 -4z"/>
<path d="M2290 6734 c0 -3 6 -11 13 -19 10 -9 16 -59 21 -166 6 -135 5 -155
-9 -165 -24 -18 -7 -21 67 -15 73 7 102 25 124 78 21 48 18 169 -5 219 -28 61
-53 74 -138 74 -40 0 -73 -3 -73 -6z m134 -29 c38 -39 52 -224 22 -284 -22
-43 -53 -42 -60 2 -8 54 -15 285 -9 291 11 11 31 6 47 -9z"/>
<path d="M3607 6565 c-32 -96 -63 -175 -68 -175 -5 0 -9 -4 -9 -10 0 -5 17
-10 37 -10 34 0 36 1 21 16 -13 13 -14 22 -5 50 9 31 14 34 47 34 34 0 38 -3
44 -31 9 -47 7 -59 -9 -59 -8 0 -15 -4 -15 -9 0 -8 100 -24 107 -17 2 1 -3 16
-11 32 -7 16 -26 102 -42 192 -15 89 -30 162 -34 162 -3 0 -32 -79 -63 -175z
m52 -52 c1 -18 -5 -23 -22 -23 -13 0 -26 3 -30 6 -5 5 10 58 30 104 6 15 21
-43 22 -87z"/>
<path d="M2146 6703 c-3 -15 -17 -93 -32 -173 -14 -80 -30 -153 -35 -162 -9
-16 -5 -18 28 -18 34 1 36 2 21 14 -19 14 -24 61 -9 84 5 8 21 12 41 10 27 -2
35 -9 43 -32 7 -20 6 -35 -2 -48 -10 -17 -7 -18 40 -18 45 0 50 2 43 18 -4 9
-33 90 -63 179 -31 89 -59 164 -63 168 -3 3 -9 -6 -12 -22z m33 -210 c1 -8
-11 -13 -30 -13 -24 0 -29 4 -25 18 2 9 8 37 12 62 l7 45 18 -50 c9 -27 18
-56 18 -62z"/>
<path d="M3821 6702 c18 -29 -4 -308 -26 -333 -14 -15 -13 -17 16 -23 67 -13
116 -7 147 19 80 67 84 280 7 331 -12 8 -53 17 -90 21 -66 6 -67 6 -54 -15z
m125 -37 c13 -20 16 -45 12 -128 -4 -115 -25 -169 -68 -175 l-23 -4 7 109 c13
199 17 223 37 223 10 0 26 -11 35 -25z"/>
<path d="M1727 6693 c-27 -4 -27 -5 -8 -21 16 -14 21 -40 31 -172 10 -136 9
-156 -4 -166 -9 -6 -14 -13 -12 -15 8 -8 116 3 116 12 0 5 -6 9 -14 9 -18 0
-24 29 -31 170 -4 63 -9 122 -11 131 -3 9 2 24 11 32 8 9 15 18 15 21 0 6 -47
6 -93 -1z"/>
<path d="M1840 6694 c0 -3 6 -12 14 -19 19 -19 33 -310 15 -331 -6 -8 -10 -16
-8 -18 2 -2 35 0 72 4 75 8 101 25 123 77 21 48 18 169 -5 219 -28 61 -53 74
-138 74 -40 0 -73 -3 -73 -6z m146 -45 c36 -71 34 -259 -3 -286 -15 -11 -43
-18 -43 -10 0 1 -5 74 -10 161 -8 121 -8 161 1 167 19 11 38 -1 55 -32z"/>
<path d="M1667 6683 c-5 -7 -21 -10 -41 -6 -50 8 -76 -22 -76 -87 0 -67 20
-102 75 -135 51 -29 71 -61 61 -98 -13 -54 -74 -36 -97 28 -15 42 -30 46 -24
8 2 -16 7 -46 10 -67 4 -22 10 -35 13 -29 4 6 26 10 48 10 50 -2 71 14 84 62
20 76 -10 131 -102 186 -25 16 -34 28 -36 54 -2 18 1 38 7 44 18 18 56 -2 79
-40 l22 -38 -1 35 c-1 49 -13 88 -22 73z"/>
<path d="M4125 6654 c-9 -22 -39 -95 -67 -164 -27 -69 -56 -132 -64 -141 -13
-15 -13 -17 1 -23 9 -3 25 -6 36 -6 16 0 17 3 8 18 -12 18 -7 54 9 79 5 7 19
9 42 4 32 -6 35 -10 38 -46 3 -28 -1 -43 -13 -51 -15 -11 -12 -14 21 -19 22
-4 48 -9 58 -12 16 -4 18 -2 11 13 -5 11 -19 100 -31 198 -13 98 -26 181 -28
183 -3 3 -12 -12 -21 -33z m4 -171 c1 -44 -6 -49 -40 -35 -15 6 -15 12 4 61
17 43 22 50 28 35 4 -10 8 -38 8 -61z"/>
<path d="M4273 6652 c15 -16 15 -30 -2 -171 -14 -123 -21 -157 -36 -167 -14
-11 -15 -14 -4 -18 13 -5 144 -23 179 -25 8 0 30 -4 48 -7 32 -6 33 -5 21 14
-10 16 -10 26 1 51 11 29 17 32 49 29 34 -3 36 -5 39 -43 3 -27 -1 -43 -13
-51 -20 -15 -12 -20 48 -28 45 -7 48 -6 39 11 -6 10 -18 97 -27 193 -16 166
-20 189 -29 179 -2 -2 -34 -75 -71 -161 -77 -182 -118 -237 -84 -115 14 53 5
57 -20 9 -11 -22 -27 -42 -36 -46 -28 -10 -55 -7 -61 8 -5 14 22 273 32 309 3
9 12 17 20 17 34 0 10 18 -32 24 -75 10 -80 9 -61 -12z m289 -224 c3 -46 2
-48 -24 -48 -34 0 -35 12 -6 76 23 51 25 49 30 -28z"/>
<path d="M1323 6633 c-38 -5 -39 -7 -15 -31 25 -25 61 -305 42 -327 -18 -21
-13 -23 50 -12 48 8 52 11 37 22 -17 12 -46 140 -35 151 3 2 24 -32 49 -76 38
-69 47 -80 71 -80 15 0 29 3 31 8 3 4 -15 42 -40 84 -43 75 -44 78 -27 103 22
34 20 102 -4 134 -16 22 -27 26 -73 27 -30 1 -69 -1 -86 -3z m107 -33 c6 -10
13 -39 16 -63 5 -33 2 -47 -11 -60 -33 -33 -40 -23 -50 76 -7 63 -6 67 13 67
12 0 26 -9 32 -20z"/>
<path d="M1215 6609 c-16 -4 -56 -13 -87 -19 -32 -6 -58 -16 -58 -21 0 -5 6
-9 14 -9 9 0 21 -41 40 -139 30 -158 31 -172 14 -190 -11 -11 -7 -13 20 -8 18
4 61 12 97 19 l65 11 0 61 c0 43 -3 57 -10 46 -5 -8 -10 -22 -10 -31 0 -27
-40 -69 -65 -69 -21 0 -25 7 -35 58 -6 31 -12 65 -14 75 -3 11 2 17 15 17 13
0 25 -12 35 -36 24 -57 26 -35 5 62 -10 49 -19 75 -20 58 -1 -33 -25 -73 -36
-62 -9 9 -24 83 -25 121 0 27 2 28 38 25 31 -2 40 -8 52 -35 22 -47 29 -40 18
15 -12 58 -16 61 -53 51z"/>
<path d="M1030 6572 c-30 -4 -52 -22 -27 -22 18 0 28 -30 23 -70 -2 -14 -4
-54 -5 -90 l-2 -65 -49 95 c-44 87 -47 96 -32 113 18 20 9 22 -54 6 -24 -6
-44 -15 -44 -20 0 -5 4 -9 9 -9 5 0 47 -71 92 -157 97 -185 96 -185 98 40 0
78 6 147 12 159 13 24 11 25 -21 20z"/>
<path d="M4745 6566 c18 -13 18 -21 6 -162 -14 -169 -17 -184 -36 -184 -10 0
-14 11 -12 38 2 31 -1 37 -18 37 -15 0 -21 -8 -23 -31 -4 -38 19 -64 54 -64
64 0 77 28 94 205 13 141 16 155 36 155 8 0 12 5 9 10 -3 6 -34 10 -68 10 -54
0 -59 -2 -42 -14z"/>
<path d="M4895 6399 c-39 -78 -80 -152 -93 -166 -27 -29 -26 -31 17 -39 31 -7
32 -6 20 13 -16 26 5 83 30 83 49 -1 61 -11 61 -56 0 -32 -4 -44 -15 -44 -8 0
-15 -4 -15 -9 0 -5 26 -15 58 -21 31 -7 79 -18 107 -26 54 -14 64 -12 45 11
-10 12 -10 25 0 67 14 61 29 93 30 68 1 -8 7 -51 13 -94 11 -74 14 -80 40 -89
16 -5 30 -7 32 -5 3 2 -2 42 -10 89 -19 106 -19 106 4 112 28 7 53 52 55 97 1
53 -29 82 -106 104 -63 17 -79 16 -60 -7 15 -18 -57 -306 -81 -321 -32 -20
-38 6 -44 193 -3 99 -9 181 -12 181 -4 0 -38 -63 -76 -141z m315 56 c28 -34
-10 -145 -50 -145 -24 0 -24 5 -4 83 22 85 29 93 54 62z m-280 -95 l0 -60 -27
6 c-16 4 -29 8 -31 9 -4 4 47 105 53 105 3 0 5 -27 5 -60z"/>
<path d="M745 6506 c-38 -11 -39 -13 -18 -24 17 -9 27 -38 53 -144 17 -73 33
-138 35 -145 2 -7 -3 -20 -12 -28 -23 -24 -14 -25 50 -7 56 15 58 16 38 31
-19 15 -33 60 -85 284 -2 9 2 24 11 32 13 13 12 15 -9 14 -13 0 -41 -6 -63
-13z"/>
<path d="M662 6489 c-33 -10 -33 -10 -12 -27 18 -16 65 -153 58 -172 -2 -4
-38 32 -81 80 -75 85 -79 88 -109 79 -42 -12 -44 -16 -19 -36 26 -22 94 -272
80 -294 -15 -24 -10 -27 26 -16 39 11 45 22 17 29 -14 4 -25 32 -46 112 -16
59 -27 108 -25 110 2 2 48 -45 103 -105 54 -60 102 -109 106 -109 4 0 -10 66
-32 148 -24 89 -37 160 -34 180 3 17 4 32 3 31 -1 0 -17 -5 -35 -10z"/>
<path d="M423 6420 l-23 -9 23 -23 c32 -32 93 -242 81 -277 -12 -33 -53 -40
-77 -13 -10 10 -34 72 -54 136 -32 101 -35 120 -24 138 12 20 11 21 -16 15
-15 -3 -41 -10 -56 -16 -29 -11 -29 -11 -9 -29 12 -10 35 -63 56 -132 41 -133
64 -164 123 -164 81 0 92 69 39 238 -26 81 -32 114 -25 128 11 20 -1 23 -38 8z"/>
<path d="M5370 6278 c-41 -72 -86 -144 -99 -160 -27 -33 -27 -34 14 -44 27 -7
29 -6 16 10 -12 14 -11 21 5 51 10 19 20 35 22 35 1 0 19 -7 38 -15 33 -14 35
-17 29 -47 -4 -18 -14 -39 -22 -45 -13 -10 -14 -13 -2 -17 8 -2 29 -9 48 -15
19 -6 34 -11 35 -11 2 0 -4 383 -6 386 -2 1 -37 -56 -78 -128z m23 -98 c-4 -5
-18 -4 -31 1 l-23 9 28 52 28 52 3 -54 c2 -29 0 -56 -5 -60z"/>
<path d="M2822 5570 l-31 -70 31 -74 c17 -41 34 -73 38 -71 3 2 19 35 35 74
l28 70 -28 66 c-16 36 -32 68 -35 70 -4 3 -21 -27 -38 -65z"/>
<path d="M2669 5557 l-26 -62 26 -62 c14 -35 28 -63 31 -63 3 0 17 28 31 62
l25 63 -25 62 c-13 35 -27 63 -30 63 -3 0 -18 -28 -32 -63z"/>
<path d="M3001 5574 c-33 -73 -33 -84 -3 -148 l28 -60 27 64 28 63 -22 56
c-12 31 -25 60 -30 65 -4 4 -17 -13 -28 -40z"/>
<path d="M2535 5547 c-21 -52 -21 -52 -1 -99 11 -27 23 -48 26 -48 4 0 15 24
24 53 17 51 17 53 -4 100 -11 26 -22 47 -23 47 -1 0 -11 -24 -22 -53z"/>
<path d="M3143 5550 l-22 -53 20 -48 c12 -27 25 -47 29 -44 4 2 15 25 24 49
17 45 17 47 -6 97 l-23 51 -22 -52z"/>
<path d="M1226 4354 l-50 -55 44 -44 44 -45 -44 -45 -43 -44 47 -56 c26 -30
51 -55 55 -55 5 0 28 21 51 46 l42 46 47 -46 47 -46 52 53 52 52 -47 48 -48
47 48 47 47 48 -52 52 -52 53 -47 -46 -47 -46 -42 46 c-23 25 -45 46 -49 45
-3 -1 -28 -26 -55 -55z"/>
<path d="M4204 4355 l-47 -56 43 -44 44 -45 -42 -43 c-23 -23 -42 -47 -42 -53
0 -5 23 -32 51 -59 l51 -50 44 49 45 49 47 -46 48 -47 52 53 52 52 -47 48 -48
47 48 47 47 48 -52 52 -52 53 -49 -48 -48 -47 -45 48 c-25 26 -47 47 -49 47
-2 0 -25 -25 -51 -55z"/>
<path d="M1170 3443 c1 -35 2 -36 15 -20 13 18 15 18 60 -9 l48 -27 -48 -24
c-37 -19 -50 -22 -61 -12 -12 10 -14 3 -14 -46 0 -54 1 -57 18 -43 9 8 42 29
73 46 63 36 139 45 139 17 0 -8 5 -15 10 -15 6 0 10 23 9 55 -1 30 -6 55 -11
55 -4 0 -8 -4 -8 -10 0 -5 -23 -10 -51 -10 -40 0 -63 7 -105 32 -30 18 -54 36
-54 40 0 5 -4 8 -10 8 -5 0 -10 -17 -10 -37z"/>
<path d="M4460 3460 c0 -3 10 -10 23 -15 12 -6 23 -20 25 -32 3 -23 2 -23
-102 -23 -91 0 -105 2 -109 18 -3 9 -5 -12 -5 -48 0 -36 2 -57 5 -47 4 15 18
17 109 17 97 0 104 -1 104 -20 0 -11 -12 -26 -27 -34 l-28 -15 38 -1 37 0 0
99 0 99 -35 4 c-19 2 -35 1 -35 -2z"/>
<path d="M4290 3124 c0 -50 2 -55 13 -40 10 13 24 17 57 14 l44 -3 -57 -38
c-51 -33 -57 -41 -57 -72 l0 -35 49 35 c56 41 62 42 79 15 12 -20 56 -27 79
-12 21 13 33 61 33 129 0 63 -1 65 -18 50 -26 -24 -183 -24 -206 -1 -15 14
-16 10 -16 -42z m218 -51 c-2 -24 -8 -29 -36 -31 -38 -4 -62 12 -62 39 0 16 8
19 51 19 49 0 50 -1 47 -27z"/>
<path d="M1388 3046 c-10 -7 -63 -30 -118 -52 -55 -21 -100 -42 -100 -46 0 -3
48 -25 108 -48 59 -23 111 -46 117 -51 15 -15 21 -10 23 21 2 29 -12 42 -20
18 -3 -7 -14 -9 -31 -4 -23 5 -27 12 -27 41 0 29 5 38 27 48 21 9 27 9 31 -1
10 -30 23 -7 21 38 -3 54 -5 56 -31 36z m-58 -116 c0 -33 -1 -34 -50 -16 l-35
13 35 16 c48 21 50 21 50 -13z"/>
<path d="M4290 2856 c0 -34 2 -37 13 -24 9 12 18 14 35 7 17 -6 22 -16 22 -44
0 -29 -5 -37 -27 -46 -20 -7 -28 -6 -35 3 -4 8 -8 -9 -8 -41 0 -44 2 -51 14
-42 7 6 59 30 115 54 57 23 103 47 103 52 0 5 -49 28 -107 51 -59 23 -111 48
-116 55 -6 9 -9 1 -9 -25z m134 -49 l29 -13 -41 -16 -42 -16 0 29 c0 32 10 35
54 16z"/>
<path d="M1298 2743 c-9 -10 -27 -37 -42 -60 -31 -51 -62 -57 -72 -16 -6 22
-2 31 27 55 l33 28 -34 0 -35 0 -3 -54 c-3 -45 1 -59 17 -75 42 -42 100 -15
143 67 19 35 47 42 68 16 21 -24 1 -66 -40 -86 l-35 -18 45 0 45 0 3 56 c3 47
-1 60 -19 80 -27 29 -79 32 -101 7z"/>
<path d="M4291 2504 c-1 -68 2 -84 19 -102 27 -29 64 -28 88 2 l19 25 21 -21
c28 -29 67 -18 81 23 16 45 15 157 -1 141 -17 -17 -214 -17 -221 1 -3 6 -6
-24 -6 -69z m119 -18 c0 -23 -29 -46 -59 -46 -31 0 -51 16 -51 42 0 15 9 18
55 18 41 0 55 -4 55 -14z m98 -8 c-6 -41 -88 -33 -88 8 0 10 14 14 46 14 41 0
45 -2 42 -22z"/>
<path d="M1170 2483 c1 -34 2 -36 14 -20 10 13 28 17 75 17 l62 0 -75 -60
c-69 -54 -76 -64 -76 -95 0 -36 13 -47 24 -20 4 12 25 15 101 15 76 0 97 -3
101 -15 10 -26 21 -16 21 20 0 19 -4 35 -9 35 -4 0 -8 -4 -8 -9 0 -5 -36 -11
-80 -13 -44 -2 -80 -1 -80 2 0 3 41 37 90 75 50 38 90 73 90 77 0 4 -52 8
-115 8 -70 0 -115 4 -115 10 0 6 -4 10 -10 10 -5 0 -10 -17 -10 -37z"/>
<path d="M4290 2279 c0 -24 3 -30 9 -20 6 9 18 11 35 7 22 -5 26 -12 26 -41 0
-28 -5 -38 -26 -47 -21 -10 -27 -9 -35 3 -6 9 -9 -2 -9 -37 l0 -51 58 27 c31
15 85 38 120 51 34 13 61 28 59 33 -1 4 -50 26 -107 48 -58 22 -111 44 -117
50 -10 8 -13 3 -13 -23z m131 -44 c19 -8 31 -14 28 -15 -4 0 -23 -7 -43 -15
l-36 -15 0 30 c0 34 5 36 51 15z"/>
<path d="M1370 2190 c25 -23 31 -36 28 -62 -3 -32 -5 -33 -50 -36 -43 -3 -48
-1 -48 18 0 13 10 25 28 32 l27 12 -32 4 c-18 2 -48 2 -65 0 l-33 -4 28 -12
c17 -7 27 -19 27 -32 0 -17 -6 -20 -46 -20 l-45 0 3 43 c2 32 8 44 26 52 32
14 27 27 -10 23 l-33 -3 -3 -99 c-3 -97 -2 -99 16 -83 26 23 200 25 208 2 15
-39 24 -6 23 81 -1 91 -2 96 -26 105 -48 18 -56 10 -23 -21z"/>
<path d="M4267 2002 c-23 -25 -21 -68 3 -92 17 -17 33 -20 122 -20 80 0 105
-3 120 -17 17 -15 18 -14 18 43 -1 52 -2 57 -14 41 -12 -15 -28 -17 -127 -15
-96 3 -114 6 -117 19 -2 13 3 15 23 11 23 -4 26 -2 23 19 -4 30 -29 35 -51 11z"/>
<path d="M1171 1880 c0 -49 2 -61 10 -47 8 14 26 17 114 17 63 0 105 -4 105
-10 0 -5 4 -10 8 -10 5 0 10 25 11 55 1 32 -3 55 -9 55 -5 0 -10 -7 -10 -15 0
-12 -18 -15 -101 -15 -85 0 -104 3 -115 18 -12 15 -13 8 -13 -48z"/>
<path d="M4290 1767 c0 -23 3 -28 9 -18 8 12 14 13 35 3 21 -9 26 -19 26 -47
0 -29 -4 -36 -26 -41 -17 -4 -29 -2 -35 7 -6 9 -9 -7 -9 -44 0 -51 2 -57 14
-44 8 8 62 33 120 57 58 23 106 45 106 49 0 4 -39 22 -87 40 -49 18 -103 41
-120 52 l-33 18 0 -32z m133 -44 c26 -8 21 -20 -14 -32 -18 -6 -34 -11 -35
-11 -2 0 -4 14 -4 31 0 26 3 30 18 24 9 -4 25 -10 35 -12z"/>
<path d="M1199 1741 c-21 -17 -24 -29 -28 -103 -3 -82 -3 -83 16 -65 27 23
200 25 209 2 12 -31 22 -13 22 40 0 53 -10 71 -22 40 -3 -10 -19 -15 -44 -15
-38 0 -40 1 -46 40 -11 71 -60 99 -107 61z m72 -51 c10 -6 19 -20 19 -30 0
-17 -7 -20 -50 -20 -41 0 -50 3 -50 18 0 37 40 53 81 32z"/>
<path d="M1292 907 l-52 -52 47 -48 47 -47 -47 -48 -47 -48 53 -52 53 -52 44
45 44 45 48 -47 49 -48 48 55 49 55 -27 30 c-58 64 -58 61 -13 114 l41 48 -53
52 -52 51 -44 -45 -44 -45 -46 45 -46 45 -52 -53z"/>
<path d="M4109 923 c-68 -73 -67 -69 -19 -118 l44 -45 -42 -43 c-23 -23 -42
-47 -42 -53 0 -5 22 -31 49 -58 l48 -48 46 49 46 48 48 -47 49 -48 52 53 52
52 -47 48 -48 47 48 47 47 48 -52 52 -52 53 -48 -47 -48 -47 -48 47 -48 47
-35 -37z"/>
<path d="M2755 3748 c-44 -16 -104 -62 -131 -101 -19 -29 -30 -35 -73 -40
-160 -19 -264 -134 -266 -297 -1 -63 -5 -83 -28 -122 -74 -125 -59 -242 46
-355 24 -27 50 -65 57 -87 16 -49 72 -111 124 -138 64 -33 197 -34 279 -3 16
7 17 -4 17 -142 l0 -150 -112 -110 c-121 -117 -153 -135 -195 -108 -36 24 -28
65 16 80 39 13 56 46 41 76 -11 20 -35 25 -45 9 -9 -15 -32 -12 -39 5 -9 25 4
44 32 47 23 3 27 7 25 32 -4 55 -24 65 -131 62 -81 -2 -107 -6 -154 -28 -52
-24 -58 -30 -58 -57 0 -16 -5 -42 -10 -57 -6 -15 -15 -55 -19 -88 -7 -49 -5
-71 10 -111 10 -27 21 -71 24 -97 l7 -46 -49 -22 c-26 -11 -69 -44 -95 -72
-27 -28 -48 -44 -48 -37 1 8 23 102 49 209 l48 195 -27 35 c-16 19 -44 53 -62
74 l-34 40 -82 -63 -82 -62 0 -60 c0 -47 7 -73 31 -121 l31 -61 29 69 c25 57
29 78 24 119 -5 44 -3 52 16 63 19 12 24 11 45 -9 13 -12 24 -32 24 -43 0 -11
-25 -116 -55 -233 -53 -206 -55 -216 -45 -279 6 -36 8 -80 5 -98 -5 -23 -2
-36 9 -45 8 -7 20 -28 27 -48 10 -30 9 -37 -10 -57 -18 -19 -21 -35 -21 -109
l0 -87 95 0 c52 0 95 1 95 3 0 2 -22 20 -50 41 -44 34 -50 42 -50 75 0 35 3
39 50 61 55 26 53 20 71 172 9 75 15 98 28 102 9 3 77 17 152 32 l137 28 48
99 c52 105 96 152 166 177 33 12 37 18 43 59 9 59 16 72 60 105 l35 27 0 -61
c0 -60 -1 -62 -52 -116 -28 -30 -70 -63 -92 -73 -34 -16 -48 -31 -79 -91 l-39
-73 29 7 c57 15 100 42 166 106 l67 66 0 -306 0 -305 -36 -45 c-38 -48 -97
-90 -127 -90 -10 0 -17 -5 -15 -12 9 -25 56 -49 119 -60 l65 -10 13 -47 c14
-51 36 -81 61 -81 26 0 70 54 77 93 5 35 7 37 64 48 56 11 120 41 118 56 0 5
-28 22 -62 38 -38 19 -70 43 -84 64 -23 34 -23 38 -23 345 l0 310 58 -55 c31
-31 71 -65 87 -76 32 -21 96 -46 102 -39 2 2 -12 35 -31 74 -29 58 -41 72 -73
85 -21 8 -62 40 -91 70 l-53 54 3 62 3 63 41 -39 c35 -32 43 -46 48 -89 7 -46
11 -52 41 -62 73 -27 117 -74 169 -179 l48 -99 145 -30 c80 -16 148 -31 153
-34 4 -3 13 -50 19 -105 16 -143 14 -138 71 -165 47 -22 50 -26 50 -61 0 -33
-6 -41 -50 -75 -27 -21 -50 -39 -50 -41 0 -2 43 -3 95 -3 l95 0 0 87 c0 74 -3
90 -21 109 -19 20 -20 27 -10 57 7 20 18 41 26 47 9 7 12 23 8 44 -3 18 0 63
5 99 10 64 9 74 -48 296 l-58 230 27 24 c22 21 30 23 49 14 21 -10 22 -15 17
-61 -5 -43 -2 -62 23 -120 l30 -70 31 62 c24 48 31 74 31 121 l0 60 -82 61
-83 62 -39 -43 c-21 -24 -49 -58 -62 -74 l-23 -30 49 -195 c27 -107 50 -201
50 -208 0 -7 -22 10 -50 38 -27 28 -70 60 -95 71 -39 17 -45 24 -45 50 0 16
11 60 24 98 23 65 23 73 11 142 -7 41 -18 86 -24 101 -6 15 -8 35 -5 43 5 11
-10 22 -52 42 -49 22 -76 27 -156 29 -95 2 -98 2 -118 -24 -28 -35 -23 -66 12
-70 28 -3 41 -22 32 -47 -7 -17 -30 -20 -39 -5 -10 16 -34 11 -45 -9 -15 -30
2 -63 41 -76 28 -10 34 -17 34 -41 0 -38 -40 -59 -81 -44 -15 6 -77 59 -136
117 l-108 107 0 148 c0 81 2 148 5 148 3 0 24 -9 47 -21 35 -18 51 -20 102
-14 120 13 195 64 237 160 12 28 46 76 76 107 66 70 92 126 93 196 0 63 -16
106 -59 154 -30 34 -31 39 -31 124 0 109 -25 171 -91 227 -43 37 -118 67 -169
67 -18 0 -44 17 -86 58 -40 40 -76 64 -109 75 -54 19 -164 21 -210 5z m-195
-530 c0 -4 -14 -15 -32 -24 -39 -20 -113 -14 -139 12 -18 19 -16 19 76 19 52
0 95 -3 95 -7z m365 -15 c-18 -16 -39 -23 -70 -23 -31 0 -52 7 -70 23 l-26 22
96 0 96 0 -26 -22z m390 0 c-18 -16 -39 -23 -66 -23 -39 0 -99 23 -99 38 0 4
43 7 96 7 l95 0 -26 -22z m-590 -130 c-33 -29 -88 -30 -132 -3 -18 11 -33 21
-33 22 0 2 43 3 96 3 l95 0 -26 -22z m409 -2 c-23 -19 -36 -22 -77 -18 -29 2
-56 12 -68 23 -18 19 -17 19 77 19 l95 0 -27 -24z m-571 -193 c-32 -35 -109
-35 -152 -1 -21 18 -19 18 73 18 89 0 94 -1 79 -17z m756 -1 c-43 -34 -120
-34 -152 1 -15 16 -10 17 79 17 92 0 94 0 73 -18z m-629 -169 c0 -14 -59 -38
-92 -38 -26 0 -98 31 -98 42 0 2 43 3 95 3 52 0 95 -3 95 -7z m525 -15 c-33
-29 -88 -30 -132 -3 -18 11 -33 21 -33 22 0 2 43 3 96 3 l95 0 -26 -22z m-806
-337 c-2 -2 -14 -9 -26 -15 -19 -10 -23 -9 -23 4 0 10 9 15 27 15 14 0 24 -2
22 -4z m961 -10 c0 -9 -7 -12 -20 -9 -31 8 -34 23 -6 23 16 0 26 -6 26 -14z
m-1112 -103 l-3 -27 -17 25 c-16 25 -16 28 0 50 l17 24 3 -22 c2 -13 2 -35 0
-50z m1236 1 c-9 -13 -18 -24 -20 -24 -2 0 -4 21 -4 48 l1 47 19 -23 c18 -22
18 -25 4 -48z m-1284 -101 l-1 -48 -19 23 c-18 22 -18 25 -4 48 9 13 18 24 20
24 2 0 4 -21 4 -47z m120 2 c0 -49 -8 -56 -28 -24 -11 17 -11 25 3 45 8 13 18
24 20 24 3 0 5 -20 5 -45z m1094 21 c14 -23 14 -26 -4 -48 l-19 -23 -1 48 c0
26 2 47 4 47 2 0 11 -11 20 -24z m120 0 c14 -23 14 -26 -4 -48 l-19 -23 -1 48
c0 26 2 47 4 47 2 0 11 -11 20 -24z m-1284 -147 l0 -52 -21 26 c-20 26 -20 27
-2 52 10 13 19 25 21 25 1 0 2 -23 2 -51z m1231 -25 l-21 -27 0 49 0 48 21
-21 22 -21 -22 -28z"/>
<path d="M2152 1437 c-12 -106 -22 -200 -22 -209 0 -16 11 -18 95 -18 52 0 95
3 95 8 0 4 -23 23 -50 42 -44 31 -50 39 -50 71 0 33 3 37 52 60 l52 24 -2 60
c-3 67 -12 78 -100 127 l-48 27 -22 -192z"/>
<path d="M3478 1584 c-66 -43 -68 -45 -68 -86 0 -24 -3 -52 -6 -63 -4 -18 4
-25 50 -44 54 -22 56 -24 56 -59 0 -33 -6 -41 -50 -72 -27 -19 -50 -38 -50
-42 0 -5 43 -8 95 -8 52 0 95 3 95 8 1 29 -45 412 -49 411 -3 0 -36 -20 -73
-45z"/>
<path d="M2470 7885 c0 -33 -2 -35 -35 -35 l-35 0 0 -55 0 -55 35 0 c33 0 35
-2 35 -35 l0 -35 50 0 50 0 0 35 c0 33 2 35 35 35 l35 0 0 55 0 55 -35 0 c-33
0 -35 2 -35 35 l0 35 -50 0 -50 0 0 -35z m90 -20 c0 -32 2 -35 30 -35 28 0 30
-3 30 -35 0 -32 -2 -35 -30 -35 -28 0 -30 -3 -30 -36 0 -35 -1 -35 -37 -32
-35 3 -38 6 -41 36 -3 28 -7 32 -33 32 -27 0 -29 3 -29 35 0 32 2 35 30 35 26
0 30 4 30 28 0 37 6 42 47 42 31 0 33 -2 33 -35z"/>
<path d="M3157 7913 c-4 -3 -7 -19 -7 -35 0 -24 -4 -28 -30 -28 -30 0 -30 -1
-30 -55 0 -54 0 -55 29 -55 26 0 30 -4 33 -32 3 -32 4 -33 53 -33 49 0 50 1
53 33 3 28 7 32 33 32 29 0 29 1 29 55 0 54 0 55 -30 55 -28 0 -30 3 -30 35
l0 35 -48 0 c-27 0 -52 -3 -55 -7z m83 -48 c0 -33 2 -35 35 -35 33 0 35 -2 35
-35 0 -33 -2 -35 -35 -35 -33 0 -35 -2 -35 -35 0 -33 -2 -35 -35 -35 -33 0
-35 2 -35 35 0 33 -2 35 -35 35 -33 0 -35 2 -35 35 0 33 2 35 35 35 33 0 35 2
35 35 0 33 2 35 35 35 33 0 35 -2 35 -35z"/>
<path d="M2468 7208 c-3 -29 -7 -33 -35 -36 -32 -3 -33 -4 -33 -53 l0 -49 35
0 c33 0 35 -2 35 -35 l0 -35 50 0 50 0 0 35 c0 33 2 35 35 35 l35 0 0 49 c0
49 -1 50 -32 53 -29 3 -33 7 -36 36 -3 31 -4 32 -52 32 -48 0 -49 -1 -52 -32z
m90 -15 c3 -29 7 -33 33 -33 27 0 29 -3 29 -35 0 -32 -2 -35 -30 -35 -28 0
-30 -3 -30 -35 0 -34 -1 -35 -41 -35 -40 0 -40 1 -37 33 3 30 1 32 -29 35 -30
3 -33 6 -33 38 0 32 2 34 34 34 29 0 33 3 29 20 -9 35 4 52 39 48 29 -3 33 -7
36 -35z"/>
<path d="M3150 7205 c0 -32 -2 -35 -30 -35 -29 0 -30 -1 -30 -50 0 -49 1 -50
30 -50 28 0 30 -3 30 -35 l0 -35 55 0 55 0 0 35 c0 32 2 35 30 35 29 0 30 1
30 50 0 49 -1 50 -30 50 -28 0 -30 3 -30 35 l0 35 -55 0 -55 0 0 -35z m90 -10
c0 -33 2 -35 35 -35 33 0 35 -2 35 -34 0 -32 -3 -35 -32 -38 -29 -3 -33 -7
-36 -35 -3 -30 -6 -33 -38 -33 -32 0 -34 2 -34 36 0 34 -1 35 -32 32 -32 -3
-33 -1 -33 32 0 32 3 35 33 38 29 3 32 6 32 38 0 32 2 34 35 34 33 0 35 -2 35
-35z"/>
</g>
</svg>
